<svg xmlns="http://www.w3.org/2000/svg" xmlns:xlink="http://www.w3.org/1999/xlink" width="16.997894287109375" height="20.076171875" viewBox="0 0 16.997894287109375 20.076171875" fill="none">
<path d="M12.0401 17.2064L2.12472 17.2064C0.953291 17.2064 0 16.2414 0 15.0556L0 2.1508C0 0.964994 0.953291 0 2.12472 0L12.0401 0C13.2115 0 14.1648 0.964994 14.1648 2.1508L14.1648 15.0556C14.1648 16.2414 13.2115 17.2064 12.0401 17.2064ZM2.12472 1.43387C1.73448 1.43387 1.41648 1.75577 1.41648 2.1508L1.41648 15.0556C1.41648 15.4514 1.73448 15.7726 2.12472 15.7726L12.0401 15.7726C12.431 15.7726 12.7483 15.4514 12.7483 15.0556L12.7483 2.1508C12.7483 1.75577 12.431 1.43387 12.0401 1.43387L2.12472 1.43387Z"   fill="#FFFFFF" >
</path>
<path d="M14.8732 20.0762L4.24956 20.0762C3.85861 20.0762 3.54132 19.7557 3.54132 19.3592C3.54132 18.9628 3.85861 18.6423 4.24956 18.6423L14.8732 18.6423C15.2641 18.6423 15.5814 18.3211 15.5814 17.9254L15.5814 4.3036C15.5814 3.90786 15.898 3.58667 16.2896 3.58667C16.6813 3.58667 16.9979 3.90786 16.9979 4.3036L16.9979 17.9254C16.9979 19.1112 16.0446 20.0762 14.8732 20.0762Z"   fill="#FFFFFF" >
</path>
<path d="M9.20729 5.73734L3.54137 5.73734C3.15042 5.73734 2.83313 5.41615 2.83313 5.0204C2.83313 4.62465 3.15042 4.30347 3.54137 4.30347L9.20729 4.30347C9.59895 4.30347 9.91553 4.62465 9.91553 5.0204C9.91553 5.41615 9.59895 5.73734 9.20729 5.73734Z"   fill="#FFFFFF" >
</path>
<path d="M10.6236 9.32132L3.54186 9.32132C3.15091 9.32132 2.83362 9.00013 2.83362 8.60439C2.83362 8.20864 3.15091 7.88745 3.54186 7.88745L10.6236 7.88745C11.0152 7.88745 11.3318 8.20864 11.3318 8.60439C11.3318 9.00013 11.0152 9.32132 10.6236 9.32132Z"   fill="#FFFFFF" >
</path>
<path d="M10.6238 12.9058L3.54137 12.9058C3.15042 12.9058 2.83313 12.5853 2.83313 12.1889C2.83313 11.7924 3.15042 11.4719 3.54137 11.4719L10.6238 11.4719C11.0154 11.4719 11.332 11.7924 11.332 12.1889C11.332 12.5853 11.0154 12.9058 10.6238 12.9058Z"   fill="#FFFFFF" >
</path>
</svg>
