<svg xmlns="http://www.w3.org/2000/svg" xmlns:xlink="http://www.w3.org/1999/xlink" width="19.830718994140625" height="17.20654296875" viewBox="0 0 19.830718994140625 17.20654296875" fill="none">
<path d="M15.3098 6.72884L12.2091 6.72884L12.2091 0L7.62158 0L7.62158 6.72884L4.52093 6.72884L9.91571 13.1496L15.3098 6.72884ZM17.5097 10.3712L17.5097 12.4901C17.5097 14.0661 16.9632 14.5986 15.3459 14.5986L4.48408 14.5986C2.86678 14.5986 2.32035 14.0661 2.32035 12.4901L2.32035 10.3712L0 10.3712L0 13.4812C0 13.5421 0.00153477 13.603 0.00460449 13.6639C0.00767405 13.7248 0.0122757 13.7856 0.018409 13.8463C0.024541 13.907 0.0321967 13.9674 0.041376 14.0278C0.0505568 14.0881 0.0612496 14.1481 0.0734545 14.2079C0.0856609 14.2677 0.0993642 14.3272 0.114565 14.3863C0.129767 14.4455 0.146448 14.5042 0.164609 14.5625C0.182772 14.6209 0.202392 14.6788 0.223469 14.7362C0.244546 14.7935 0.267055 14.8504 0.290996 14.9067C0.314938 14.9631 0.340283 15.0188 0.367033 15.0739C0.393783 15.129 0.421904 15.1835 0.451395 15.2372C0.480889 15.291 0.511716 15.344 0.543881 15.3963C0.576046 15.4486 0.609507 15.5001 0.644265 15.5508C0.679023 15.6015 0.715037 15.6513 0.752305 15.7003C0.789573 15.7493 0.828052 15.7973 0.86774 15.8444C0.907428 15.8916 0.948284 15.9377 0.990304 15.9829C1.03231 16.0281 1.07544 16.0722 1.11969 16.1153C1.16393 16.1584 1.20923 16.2005 1.25559 16.2414C1.30194 16.2823 1.34929 16.3222 1.39766 16.3608C1.44602 16.3995 1.49533 16.437 1.54559 16.4733C1.59583 16.5096 1.64696 16.5447 1.69898 16.5786C1.751 16.6125 1.80384 16.6451 1.85751 16.6764C1.91117 16.7078 1.96559 16.7378 2.02076 16.7666C2.07594 16.7953 2.13181 16.8227 2.18837 16.8488C2.24492 16.8748 2.3021 16.8995 2.35991 16.9229C2.41771 16.9462 2.47607 16.9681 2.53496 16.9887C2.59387 17.0092 2.65327 17.0283 2.71314 17.046C2.773 17.0637 2.83327 17.08 2.89397 17.0948C2.95466 17.1096 3.01567 17.1229 3.07704 17.1348C3.13841 17.1467 3.20003 17.1572 3.26191 17.1661C3.32381 17.175 3.38587 17.1825 3.44813 17.1885C3.51038 17.1945 3.57277 17.1989 3.63527 17.2019C3.69775 17.2049 3.76027 17.2064 3.82284 17.2064L16.0079 17.2064C16.0704 17.2064 16.133 17.2049 16.1954 17.2019C16.2579 17.1989 16.3203 17.1945 16.3826 17.1885C16.4448 17.1825 16.5069 17.175 16.5688 17.1661C16.6307 17.1572 16.6923 17.1467 16.7537 17.1348C16.815 17.1229 16.8761 17.1096 16.9367 17.0948C16.9974 17.08 17.0577 17.0637 17.1176 17.046C17.1774 17.0283 17.2368 17.0092 17.2958 16.9887C17.3546 16.9681 17.413 16.9462 17.4708 16.9229C17.5286 16.8995 17.5858 16.8748 17.6423 16.8488C17.6989 16.8227 17.7548 16.7953 17.81 16.7666C17.8651 16.7378 17.9195 16.7078 17.9732 16.6764C18.0269 16.6451 18.0797 16.6125 18.1317 16.5786C18.1838 16.5447 18.2349 16.5096 18.2851 16.4733C18.3354 16.437 18.3847 16.3995 18.4331 16.3608C18.4814 16.3222 18.5288 16.2823 18.5751 16.2414C18.6215 16.2005 18.6668 16.1584 18.711 16.1153C18.7553 16.0722 18.7984 16.0281 18.8404 15.9829C18.8824 15.9377 18.9233 15.8916 18.963 15.8444C19.0027 15.7973 19.0411 15.7493 19.0784 15.7003C19.1157 15.6513 19.1517 15.6015 19.1864 15.5508C19.2212 15.5001 19.2547 15.4486 19.2868 15.3963C19.319 15.344 19.3498 15.291 19.3793 15.2372C19.4088 15.1835 19.4369 15.129 19.4637 15.0739C19.4904 15.0188 19.5158 14.9631 19.5397 14.9067C19.5637 14.8504 19.5862 14.7935 19.6072 14.7362C19.6283 14.6788 19.6479 14.6209 19.6661 14.5625C19.6843 14.5042 19.701 14.4455 19.7161 14.3863C19.7314 14.3272 19.7451 14.2677 19.7573 14.2079C19.7695 14.1481 19.7802 14.0881 19.7893 14.0278C19.7985 13.9674 19.8062 13.907 19.8123 13.8463C19.8184 13.7856 19.823 13.7248 19.8261 13.6639C19.8292 13.603 19.8307 13.5421 19.8307 13.4812L19.8307 10.3712L17.5104 10.3712L17.5097 10.3712Z"   fill="#FFFFFF" >
</path>
</svg>
