<svg xmlns="http://www.w3.org/2000/svg" xmlns:xlink="http://www.w3.org/1999/xlink" width="34.10833740234375" height="34" viewBox="0 0 34.10833740234375 34" fill="none">
<g filter="url(#filter_6_526)">
<path d="M4 13.9166C4 20.5248 9.30836 25.8331 15.9167 25.8331C18.8325 25.8331 21.4951 24.7997 23.5605 23.0774L28.1583 27.6751C28.375 27.8917 28.5916 28 28.9167 28C29.2417 28 29.4583 27.8917 29.675 27.6751C30.1083 27.2418 30.1083 26.5918 29.675 26.1584L25.0772 21.5607C26.7999 19.4953 27.8334 16.8325 27.8334 13.9166C27.8334 7.30829 22.5251 2 15.9167 2C9.30836 2 4 7.30829 4 13.9166ZM6.16668 13.9166C6.16668 8.49997 10.5001 4.16665 15.9167 4.16665C21.3334 4.16665 25.6668 8.49997 25.6668 13.9166C25.6668 19.3332 21.3334 23.6665 15.9167 23.6665C10.5001 23.6665 6.16668 19.3332 6.16668 13.9166ZM11.475 20.0918C12.775 20.9585 14.2917 21.5001 15.9167 21.5001C16.4583 21.5001 17 21.0668 17 20.3084C17 19.6584 16.5667 19.225 15.9167 19.225C14.8334 19.225 13.75 18.9002 12.775 18.2501C11.9083 17.6001 11.15 16.6251 10.825 15.5418C10.6083 15.0001 9.95831 14.6751 9.41664 14.8918C8.87497 15.1085 8.54996 15.7585 8.76664 16.3001C9.19996 17.8168 10.175 19.1168 11.475 20.0918Z" fill-rule="evenodd"  fill="#FFFFFF" >
</path>
</g>
<defs>
<filter id="filter_6_526" x="0" y="0" width="34.10833740234375" height="34" filterUnits="userSpaceOnUse" color-interpolation-filters="sRGB">
<feFlood flood-opacity="0" result="feFloodId_6_526"/>
<feColorMatrix in="SourceAlpha" type="matrix" values="0 0 0 0 0 0 0 0 0 0 0 0 0 0 0 0 0 0 127 0" result="hardAlpha_6_526"/>
<feOffset dx="0" dy="2"/>
<feGaussianBlur stdDeviation="2"/>
<feComposite in2="hardAlpha_6_526" operator="out"/>
<feColorMatrix type="matrix" values="0 0 0 0 0 0 0 0 0 0 0 0 0 0 0 0 0 0 0.25 0"/>
<feBlend mode="normal" in2="feFloodId_6_526" result="dropShadow_1_6_526"/>
<feBlend mode="normal" in="SourceGraphic" in2="dropShadow_1_6_526" result="shape_6_526"/>
</filter>
</defs>
</svg>
