<svg xmlns="http://www.w3.org/2000/svg" xmlns:xlink="http://www.w3.org/1999/xlink" width="9.9375" height="14.12506103515625" viewBox="0 0 9.9375 14.12506103515625" fill="none">
<path d="M8.93167 7.70792C9.48717 7.70792 9.9375 8.15839 9.9375 8.71409C9.9375 8.72945 9.93714 8.74481 9.93644 8.76016C9.93573 8.7755 9.93469 8.79083 9.93328 8.80612C9.93188 8.82142 9.93013 8.83669 9.92802 8.85191C9.92591 8.86712 9.92347 8.88228 9.92067 8.89739C9.91788 8.9125 9.91472 8.92753 9.91123 8.94248C9.90775 8.95745 9.90394 8.97233 9.89977 8.98711C9.89559 9.00191 9.89109 9.01658 9.88625 9.03116C9.88141 9.04573 9.87623 9.0602 9.87073 9.07455C9.86523 9.08889 9.85941 9.10309 9.85325 9.11717C9.84709 9.13125 9.84062 9.14519 9.83383 9.15897C9.82705 9.17273 9.81995 9.18636 9.81253 9.19981C9.80511 9.21327 9.79739 9.22655 9.78938 9.23966C9.78136 9.25275 9.77303 9.26566 9.76442 9.27837C9.75581 9.29111 9.74691 9.30363 9.73772 9.31594C9.72853 9.32825 9.71906 9.34034 9.70931 9.35222C9.69958 9.36411 9.68956 9.37575 9.6793 9.38717L5.71637 13.7919C5.34477 14.205 4.7088 14.2384 4.29591 13.8667C4.26967 13.8431 4.24473 13.8182 4.22113 13.7919L0.258205 9.38717C-0.113405 8.97414 -0.0799209 8.33795 0.33297 7.96622C0.344386 7.95594 0.356033 7.94592 0.367908 7.93619C0.379783 7.92645 0.39187 7.91698 0.404173 7.90778C0.416486 7.89859 0.428995 7.88969 0.441705 7.88108C0.454423 7.87247 0.46733 7.86414 0.480423 7.85611C0.493517 7.84809 0.506792 7.84037 0.520252 7.83295C0.533698 7.82553 0.547308 7.81844 0.56108 7.81164C0.574861 7.80484 0.588787 7.79838 0.602861 7.79222C0.616933 7.78606 0.631136 7.78023 0.64547 7.77472C0.659814 7.76922 0.674272 7.76405 0.688845 7.7592C0.703417 7.75436 0.7181 7.74986 0.732892 7.74569C0.747673 7.74152 0.762542 7.73769 0.777502 7.7342C0.792459 7.73072 0.807486 7.72758 0.82258 7.72478C0.837683 7.72198 0.852845 7.71953 0.868064 7.71742C0.883272 7.71531 0.898522 7.71356 0.913814 7.71216C0.929116 7.71075 0.944439 7.70969 0.959783 7.70898C0.975127 7.70828 0.990475 7.70794 1.00583 7.70794L8.93167 7.70792ZM5.71637 0.333077L9.6793 4.73783C9.68956 4.74925 9.69958 4.76089 9.70931 4.77278C9.71906 4.78466 9.72853 4.79675 9.73772 4.80906C9.74691 4.82137 9.75581 4.83389 9.76442 4.84661C9.77303 4.85933 9.78136 4.87223 9.78938 4.88534C9.79739 4.89845 9.80511 4.91173 9.81253 4.92519C9.81995 4.93864 9.82705 4.95225 9.83383 4.96603C9.84062 4.97981 9.84709 4.99373 9.85325 5.00781C9.85941 5.02189 9.86523 5.03611 9.87073 5.05045C9.87623 5.0648 9.88141 5.07925 9.88625 5.09383C9.89109 5.10841 9.89559 5.12309 9.89977 5.13789C9.90394 5.15267 9.90775 5.16755 9.91123 5.18252C9.91472 5.19747 9.91788 5.2125 9.92067 5.22761C9.92347 5.24272 9.92591 5.25787 9.92802 5.27309C9.93013 5.28831 9.93188 5.30358 9.93328 5.31887C9.93469 5.33417 9.93573 5.34948 9.93644 5.36484C9.93714 5.38019 9.9375 5.39555 9.9375 5.41091C9.9375 5.96659 9.48719 6.41708 8.93167 6.41708L1.00583 6.41708C0.990464 6.41708 0.975116 6.41672 0.959783 6.41602C0.944439 6.41531 0.929116 6.41427 0.913814 6.41286C0.898522 6.41145 0.883267 6.4097 0.868048 6.40759C0.852839 6.40548 0.837683 6.40303 0.82258 6.40023C0.807475 6.39744 0.792444 6.3943 0.777486 6.39081C0.762527 6.38733 0.747658 6.3835 0.732877 6.37933C0.718095 6.37516 0.703417 6.37064 0.688845 6.36581C0.674261 6.36097 0.659803 6.3558 0.64547 6.35028C0.631127 6.34478 0.616917 6.33895 0.602845 6.3328C0.588772 6.32664 0.57485 6.32017 0.56108 6.31337C0.547298 6.30658 0.533683 6.29948 0.520236 6.29206C0.506787 6.28464 0.493517 6.27692 0.480423 6.26891C0.46733 6.26088 0.454423 6.25255 0.441705 6.24394C0.428986 6.23533 0.416475 6.22642 0.404173 6.21723C0.391861 6.20803 0.379772 6.19856 0.367908 6.18883C0.356033 6.17909 0.344386 6.16908 0.33297 6.1588C-0.0799209 5.78705 -0.113405 5.15086 0.258205 4.73783L4.22113 0.333077C4.24473 0.306837 4.26966 0.281911 4.29589 0.258295C4.7088 -0.113439 5.34477 -0.0799542 5.71637 0.333077Z"   fill="#FFFFFF" >
</path>
</svg>
