<svg xmlns="http://www.w3.org/2000/svg" xmlns:xlink="http://www.w3.org/1999/xlink" width="23.4248046875" height="20.8963623046875" viewBox="0 0 23.4248046875 20.8963623046875" fill="none">
<path d="M13.5929 7.15208C15.7077 9.97556 19.5296 11.1384 19.5296 11.1384C19.244 6.25069 16.3123 3.86229 11.6708 3.83882C6.11835 3.81062 2.89299 8.28557 4.1091 12.6903C4.1091 12.6903 13.5156 9.16759 13.5929 7.15208ZM20.4132 15.9106C22.1421 15.4682 23.4249 15.4958 23.4249 11.9713C23.4249 10.2737 22.4058 8.81933 20.9608 8.21056C19.8963 4.19604 16.5819 0.114549 11.6047 0.00287338C11.446 -0.00065161 11.2884 -0.00125203 11.1326 0.00287338C6.31127 0.126246 3.00744 3.83877 2.63573 8.14473C1.10335 8.7094 -0.0502285 10.2102 0.00168572 11.9713C0.117916 15.9259 1.74061 15.9887 3.90084 16.0328L3.90084 8.37981C3.94628 5.10801 7.16505 1.47891 11.6047 1.47891C16.0178 1.47891 18.4589 4.89941 19.5351 7.93791L19.5351 15.8071C19.318 16.3137 18.7368 16.8831 17.6752 17.9038C16.2903 19.2347 14.2954 19.9251 14.2954 19.9251C14.0635 19.9739 13.9 20.2824 13.9649 20.5456C14.0298 20.8089 14.3124 20.9669 14.5314 20.8653C14.5314 20.8653 16.6361 20.1813 18.2134 18.6652C19.7747 17.164 20.4079 15.9253 20.4132 15.9106L20.4132 15.9106ZM7.14664 13.3783C7.14664 13.3943 7.14704 13.4103 7.14782 13.4262C7.14861 13.4423 7.14979 13.4582 7.15136 13.4741C7.15296 13.4901 7.15493 13.506 7.15726 13.5218C7.15962 13.5376 7.16238 13.5534 7.16552 13.5691C7.16867 13.5848 7.17218 13.6004 7.17609 13.616C7.18 13.6315 7.18427 13.6469 7.18894 13.6622C7.1936 13.6776 7.19866 13.6928 7.20407 13.7078C7.20949 13.7229 7.21529 13.7378 7.22142 13.7526C7.22758 13.7674 7.23409 13.782 7.24096 13.7965C7.24783 13.811 7.25506 13.8253 7.26264 13.8394C7.27024 13.8535 7.27816 13.8675 7.28639 13.8812C7.29468 13.8949 7.30328 13.9084 7.31219 13.9217C7.32114 13.9351 7.33039 13.9481 7.33996 13.961C7.34956 13.9739 7.35944 13.9865 7.36961 13.9989C7.37984 14.0112 7.39033 14.0233 7.40113 14.0352C7.41193 14.0471 7.423 14.0587 7.43438 14.07C7.44576 14.0813 7.4574 14.0924 7.4693 14.1031C7.4812 14.1138 7.49337 14.1243 7.5058 14.1345C7.51823 14.1446 7.53092 14.1545 7.54382 14.164C7.55672 14.1735 7.56985 14.1827 7.58322 14.1917C7.5966 14.2006 7.61018 14.2091 7.62397 14.2173C7.63776 14.2256 7.65176 14.2335 7.66592 14.241C7.6801 14.2485 7.69445 14.2558 7.70897 14.2626C7.72352 14.2695 7.73823 14.2759 7.75307 14.282C7.76791 14.2882 7.78291 14.2939 7.79804 14.2993C7.81319 14.3047 7.82845 14.3098 7.84384 14.3144C7.85924 14.319 7.87473 14.3233 7.89031 14.3272C7.90591 14.3311 7.92159 14.3346 7.93734 14.3377C7.95313 14.3408 7.96896 14.3436 7.98485 14.3459C8.00077 14.3483 8.01671 14.3503 8.0327 14.3518C8.0487 14.3534 8.06474 14.3546 8.08079 14.3553C8.09686 14.3561 8.11293 14.3565 8.12901 14.3565C8.14508 14.3565 8.16115 14.3561 8.1772 14.3553C8.19327 14.3546 8.20929 14.3534 8.22528 14.3518C8.24128 14.3503 8.25725 14.3483 8.27314 14.3459C8.28905 14.3436 8.30489 14.3408 8.32064 14.3377C8.33643 14.3346 8.35211 14.3311 8.36768 14.3272C8.38328 14.3233 8.39878 14.319 8.41414 14.3144C8.42956 14.3098 8.44482 14.3047 8.45995 14.2993C8.4751 14.2939 8.49007 14.2882 8.50491 14.2821C8.51978 14.2759 8.53446 14.2695 8.54899 14.2626C8.56354 14.2558 8.57791 14.2485 8.59207 14.241C8.60625 14.2335 8.62023 14.2256 8.63402 14.2173C8.64781 14.2091 8.66139 14.2006 8.67476 14.1917C8.68814 14.1827 8.70127 14.1735 8.71417 14.164C8.7271 14.1545 8.73976 14.1446 8.75219 14.1345C8.76462 14.1243 8.77678 14.1138 8.78869 14.1031C8.80062 14.0924 8.81226 14.0813 8.82361 14.07C8.83499 14.0587 8.84608 14.0471 8.85686 14.0352C8.86766 14.0233 8.87817 14.0112 8.88837 13.9989C8.89857 13.9865 8.90846 13.9739 8.91803 13.961C8.92762 13.9481 8.93688 13.9351 8.94579 13.9217C8.95473 13.9084 8.96333 13.8949 8.97159 13.8812C8.97985 13.8675 8.98777 13.8535 8.99535 13.8394C9.00295 13.8253 9.01016 13.811 9.01703 13.7965C9.0239 13.782 9.03043 13.7674 9.03656 13.7526C9.04273 13.7378 9.04852 13.7229 9.05392 13.7078C9.05935 13.6928 9.06438 13.6776 9.06905 13.6622C9.07372 13.6469 9.07802 13.6315 9.0819 13.616C9.08583 13.6004 9.08934 13.5848 9.09246 13.5691C9.09561 13.5534 9.09834 13.5376 9.1007 13.5218C9.10306 13.506 9.10505 13.4901 9.10662 13.4741C9.1082 13.4582 9.10938 13.4423 9.11016 13.4262C9.11095 13.4103 9.11134 13.3943 9.11134 13.3783C9.11134 13.3622 9.11095 13.3462 9.11016 13.3303C9.10938 13.3143 9.1082 13.2983 9.10662 13.2824C9.10505 13.2664 9.10306 13.2505 9.1007 13.2347C9.09834 13.2189 9.09561 13.2031 9.09246 13.1874C9.08934 13.1717 9.08583 13.1561 9.0819 13.1405C9.07802 13.125 9.07372 13.1096 9.06905 13.0943C9.06438 13.0789 9.05935 13.0638 9.05392 13.0487C9.04852 13.0336 9.04273 13.0187 9.03656 13.0039C9.03043 12.9891 9.0239 12.9745 9.01703 12.96C9.01016 12.9455 9.00295 12.9312 8.99535 12.9171C8.98777 12.903 8.97985 12.889 8.97159 12.8753C8.96333 12.8616 8.95473 12.8481 8.94579 12.8348C8.93688 12.8214 8.92762 12.8084 8.91803 12.7955C8.90846 12.7826 8.89857 12.77 8.88835 12.7576C8.87817 12.7453 8.86766 12.7331 8.85686 12.7213C8.84608 12.7094 8.83499 12.6978 8.82361 12.6865C8.81226 12.6752 8.80062 12.6642 8.78869 12.6534C8.77678 12.6426 8.76462 12.6322 8.75219 12.622C8.73976 12.6119 8.7271 12.602 8.71417 12.5925C8.70127 12.583 8.68814 12.5738 8.67476 12.5649C8.66139 12.556 8.64781 12.5474 8.63402 12.5392C8.62023 12.5309 8.60625 12.523 8.59207 12.5155C8.57791 12.5079 8.56354 12.5008 8.54899 12.4939C8.53446 12.487 8.51978 12.4806 8.50491 12.4744C8.49007 12.4683 8.4751 12.4626 8.45995 12.4572C8.44482 12.4518 8.42956 12.4468 8.41414 12.4421C8.39878 12.4375 8.38328 12.4332 8.36768 12.4293C8.35211 12.4254 8.33643 12.4219 8.32064 12.4188C8.30489 12.4157 8.28905 12.4129 8.27314 12.4106C8.25725 12.4082 8.24128 12.4063 8.22528 12.4047C8.20929 12.4031 8.19327 12.4019 8.1772 12.4012C8.16115 12.4004 8.14508 12.4 8.12901 12.4C8.11293 12.4 8.09686 12.4004 8.08079 12.4012C8.06474 12.4019 8.0487 12.4031 8.0327 12.4047C8.01671 12.4063 8.00077 12.4082 7.98485 12.4106C7.96896 12.4129 7.95313 12.4157 7.93734 12.4188C7.92159 12.4219 7.90591 12.4254 7.89031 12.4293C7.87473 12.4332 7.85924 12.4375 7.84384 12.4421C7.82845 12.4468 7.81319 12.4518 7.79804 12.4572C7.78291 12.4626 7.76791 12.4683 7.75307 12.4744C7.73823 12.4806 7.72352 12.487 7.709 12.4939C7.69447 12.5008 7.6801 12.508 7.66592 12.5155C7.65176 12.5231 7.63776 12.5309 7.62397 12.5392C7.61018 12.5474 7.5966 12.556 7.58322 12.5649C7.56985 12.5738 7.55672 12.583 7.54382 12.5925C7.53092 12.602 7.51823 12.6119 7.5058 12.622C7.49337 12.6322 7.4812 12.6426 7.4693 12.6534C7.4574 12.6642 7.44576 12.6752 7.43438 12.6865C7.423 12.6978 7.41193 12.7094 7.40113 12.7213C7.39033 12.7331 7.37984 12.7453 7.36964 12.7576C7.35944 12.77 7.34956 12.7826 7.33996 12.7955C7.33039 12.8084 7.32114 12.8214 7.31219 12.8348C7.30328 12.8481 7.29468 12.8616 7.28639 12.8753C7.27816 12.889 7.27024 12.903 7.26264 12.9171C7.25506 12.9312 7.24783 12.9455 7.24096 12.96C7.23409 12.9745 7.22758 12.9891 7.22142 13.0039C7.21529 13.0187 7.20949 13.0336 7.20407 13.0487C7.19866 13.0638 7.1936 13.0789 7.18894 13.0943C7.18427 13.1096 7.18 13.125 7.17609 13.1405C7.17218 13.1561 7.16867 13.1717 7.16552 13.1874C7.16238 13.2031 7.15965 13.2189 7.15729 13.2347C7.15493 13.2505 7.15296 13.2664 7.15136 13.2824C7.14979 13.2983 7.14861 13.3143 7.14782 13.3303C7.14704 13.3462 7.14664 13.3622 7.14664 13.3783ZM14.5396 13.3783C14.5396 13.3943 14.54 13.4103 14.5408 13.4262C14.5416 13.4423 14.5428 13.4582 14.5444 13.4741C14.546 13.4901 14.5479 13.506 14.5503 13.5218C14.5527 13.5376 14.5554 13.5534 14.5585 13.5691C14.5617 13.5848 14.5652 13.6004 14.5691 13.6159C14.573 13.6315 14.5773 13.6469 14.5819 13.6622C14.5866 13.6776 14.5917 13.6928 14.5971 13.7078C14.6025 13.7229 14.6083 13.7378 14.6144 13.7526C14.6206 13.7674 14.6271 13.782 14.634 13.7965C14.6408 13.811 14.6481 13.8253 14.6556 13.8394C14.6632 13.8535 14.6712 13.8674 14.6794 13.8812C14.6877 13.8949 14.6963 13.9084 14.7052 13.9217C14.7141 13.9351 14.7234 13.9481 14.733 13.961C14.7426 13.9739 14.7524 13.9865 14.7626 13.9989C14.7728 14.0112 14.7833 14.0233 14.7941 14.0352C14.8049 14.0471 14.816 14.0587 14.8274 14.07C14.8388 14.0813 14.8504 14.0924 14.8623 14.1031C14.8742 14.1138 14.8864 14.1243 14.8988 14.1345C14.9112 14.1446 14.9239 14.1545 14.9368 14.164C14.9497 14.1735 14.9629 14.1827 14.9762 14.1917C14.9896 14.2006 15.0032 14.2091 15.017 14.2173C15.0308 14.2256 15.0447 14.2335 15.0589 14.241C15.0731 14.2485 15.0874 14.2558 15.102 14.2626C15.1165 14.2694 15.1312 14.2759 15.146 14.282C15.1609 14.2882 15.1759 14.2939 15.191 14.2993C15.2062 14.3047 15.2215 14.3098 15.2368 14.3144C15.2522 14.319 15.2677 14.3233 15.2833 14.3272C15.2989 14.3311 15.3146 14.3346 15.3303 14.3377C15.3461 14.3408 15.362 14.3436 15.3779 14.3459C15.3937 14.3483 15.4097 14.3502 15.4257 14.3518C15.4417 14.3534 15.4577 14.3546 15.4738 14.3553C15.4898 14.3561 15.5059 14.3565 15.522 14.3565C15.5381 14.3565 15.5541 14.3561 15.5702 14.3553C15.5862 14.3546 15.6023 14.3534 15.6183 14.3518C15.6343 14.3502 15.6502 14.3483 15.6661 14.3459C15.682 14.3436 15.6979 14.3408 15.7136 14.3377C15.7294 14.3346 15.7451 14.3311 15.7607 14.3272C15.7763 14.3233 15.7918 14.319 15.8071 14.3144C15.8225 14.3098 15.8378 14.3047 15.8529 14.2993C15.8681 14.2939 15.8831 14.2882 15.8979 14.282C15.9128 14.2759 15.9275 14.2694 15.942 14.2626C15.9565 14.2558 15.9709 14.2485 15.985 14.241C15.9992 14.2335 16.0132 14.2256 16.027 14.2173C16.0408 14.2091 16.0544 14.2006 16.0677 14.1917C16.0811 14.1827 16.0942 14.1735 16.1071 14.164C16.1201 14.1545 16.1327 14.1446 16.1452 14.1345C16.1576 14.1243 16.1698 14.1138 16.1817 14.1031C16.1936 14.0924 16.2052 14.0813 16.2166 14.07C16.228 14.0587 16.2391 14.0471 16.2499 14.0352C16.2607 14.0233 16.2712 14.0112 16.2813 13.9989C16.2915 13.9865 16.3014 13.9739 16.311 13.961C16.3206 13.9481 16.3299 13.9351 16.3388 13.9217C16.3477 13.9084 16.3563 13.8949 16.3646 13.8812C16.3728 13.8674 16.3807 13.8535 16.3883 13.8394C16.3959 13.8253 16.4031 13.811 16.41 13.7965C16.4169 13.782 16.4234 13.7674 16.4295 13.7526C16.4357 13.7378 16.4415 13.7229 16.4469 13.7078C16.4523 13.6928 16.4574 13.6776 16.462 13.6622C16.4667 13.6469 16.471 13.6315 16.4749 13.6159C16.4788 13.6004 16.4823 13.5848 16.4854 13.5691C16.4886 13.5534 16.4913 13.5376 16.4937 13.5218C16.496 13.506 16.498 13.4901 16.4996 13.4741C16.5012 13.4582 16.5024 13.4423 16.5031 13.4262C16.5039 13.4103 16.5043 13.3943 16.5043 13.3783C16.5043 13.3622 16.5039 13.3462 16.5031 13.3303C16.5024 13.3143 16.5012 13.2983 16.4996 13.2824C16.498 13.2664 16.496 13.2505 16.4937 13.2347C16.4913 13.2189 16.4886 13.2031 16.4854 13.1874C16.4823 13.1717 16.4788 13.1561 16.4749 13.1405C16.471 13.125 16.4667 13.1096 16.462 13.0943C16.4574 13.0789 16.4523 13.0638 16.4469 13.0487C16.4415 13.0336 16.4357 13.0187 16.4295 13.0039C16.4234 12.9891 16.4169 12.9745 16.41 12.96C16.4031 12.9455 16.3959 12.9312 16.3883 12.9171C16.3807 12.903 16.3728 12.8891 16.3646 12.8753C16.3563 12.8616 16.3477 12.8481 16.3388 12.8348C16.3299 12.8214 16.3206 12.8084 16.311 12.7955C16.3014 12.7826 16.2915 12.77 16.2813 12.7577C16.2712 12.7453 16.2606 12.7332 16.2498 12.7213C16.2391 12.7094 16.228 12.6978 16.2166 12.6865C16.2052 12.6752 16.1936 12.6642 16.1817 12.6534C16.1698 12.6427 16.1576 12.6322 16.1452 12.622C16.1327 12.6119 16.1201 12.602 16.1071 12.5925C16.0942 12.583 16.0811 12.5738 16.0677 12.5649C16.0544 12.556 16.0408 12.5474 16.027 12.5392C16.0132 12.5309 15.9992 12.5231 15.985 12.5155C15.9709 12.508 15.9565 12.5008 15.942 12.4939C15.9275 12.4871 15.9128 12.4806 15.8979 12.4745C15.8831 12.4683 15.8681 12.4626 15.8529 12.4572C15.8378 12.4518 15.8225 12.4468 15.8071 12.4421C15.7918 12.4375 15.7763 12.4332 15.7607 12.4293C15.7451 12.4254 15.7294 12.4219 15.7136 12.4188C15.6979 12.4157 15.682 12.4129 15.6661 12.4106C15.6502 12.4082 15.6343 12.4063 15.6183 12.4047C15.6023 12.4031 15.5862 12.4019 15.5702 12.4012C15.5541 12.4004 15.5381 12.4 15.522 12.4C15.5059 12.4 15.4898 12.4004 15.4738 12.4012C15.4577 12.4019 15.4417 12.4031 15.4257 12.4047C15.4097 12.4063 15.3937 12.4082 15.3779 12.4106C15.362 12.4129 15.3461 12.4157 15.3303 12.4188C15.3146 12.4219 15.2989 12.4254 15.2833 12.4293C15.2677 12.4332 15.2522 12.4375 15.2368 12.4421C15.2215 12.4468 15.2062 12.4518 15.191 12.4572C15.1759 12.4626 15.1609 12.4683 15.146 12.4745C15.1312 12.4806 15.1165 12.4871 15.102 12.4939C15.0874 12.5008 15.0731 12.508 15.0589 12.5155C15.0447 12.5231 15.0308 12.5309 15.017 12.5392C15.0032 12.5474 14.9896 12.556 14.9762 12.5649C14.9629 12.5738 14.9497 12.583 14.9368 12.5925C14.9239 12.602 14.9112 12.6119 14.8988 12.622C14.8864 12.6322 14.8742 12.6427 14.8623 12.6534C14.8504 12.6642 14.8388 12.6752 14.8274 12.6865C14.816 12.6978 14.8049 12.7094 14.7941 12.7213C14.7833 12.7332 14.7728 12.7453 14.7626 12.7577C14.7524 12.77 14.7426 12.7826 14.733 12.7955C14.7234 12.8084 14.7141 12.8214 14.7052 12.8348C14.6963 12.8481 14.6877 12.8616 14.6794 12.8753C14.6712 12.889 14.6632 12.903 14.6556 12.9171C14.6481 12.9312 14.6408 12.9455 14.634 12.96C14.6271 12.9745 14.6206 12.9891 14.6144 13.0039C14.6083 13.0187 14.6025 13.0336 14.5971 13.0487C14.5917 13.0638 14.5866 13.0789 14.5819 13.0943C14.5773 13.1096 14.573 13.125 14.5691 13.1405C14.5652 13.1561 14.5617 13.1717 14.5585 13.1874C14.5554 13.2031 14.5527 13.2189 14.5503 13.2347C14.5479 13.2505 14.546 13.2664 14.5444 13.2824C14.5428 13.2983 14.5416 13.3143 14.5408 13.3303C14.54 13.3462 14.5396 13.3622 14.5396 13.3783Z"   fill="#FF3D00" >
</path>
</svg>
