<svg xmlns="http://www.w3.org/2000/svg" xmlns:xlink="http://www.w3.org/1999/xlink" width="15" height="14.98406982421875" viewBox="0 0 15 14.98406982421875" fill="none">
<path d="M5.52128 10.5C5.42553 10.4043 5.29787 10.3085 5.1383 10.2447C5.04255 10.2287 4.88298 10.149 4.62766 10.0851L4.62766 8.61704C4.78723 8.64895 4.93085 8.7447 5.01064 8.84044C5.10638 8.93619 5.17021 9.11172 5.20213 9.28725L5.74468 9.22342C5.68085 8.90427 5.55319 8.633 5.32979 8.45746C5.17021 8.3298 4.91489 8.23406 4.62766 8.20214L4.62766 7.94683L4.34043 7.94683L4.34043 8.20214C3.98936 8.23406 3.71809 8.3298 3.57447 8.48938C3.31915 8.71278 3.19149 9.03193 3.19149 9.383C3.19149 9.57449 3.2234 9.75002 3.31915 9.92555C3.41489 10.0851 3.54255 10.2128 3.70213 10.3085C3.92553 10.4362 4.11702 10.5319 4.34043 10.5639L4.34043 12.1756C4.14894 12.1436 3.98936 12.0479 3.82979 11.8564C3.70213 11.7287 3.6383 11.5373 3.60638 11.25L3.09574 11.3458C3.09574 11.6011 3.14362 11.8245 3.28723 12.016C3.41489 12.2075 3.55851 12.367 3.70213 12.4309C3.8617 12.4788 4.08511 12.5585 4.34043 12.5905L4.34043 13.0692L4.62766 13.0692L4.62766 12.5585C4.97872 12.5266 5.26596 12.399 5.48936 12.1756C5.71277 11.9202 5.84043 11.633 5.84043 11.2819C5.84043 11.1224 5.80851 10.9628 5.74468 10.8351C5.71277 10.7234 5.61702 10.5958 5.52128 10.5ZM4.37234 10.0213C4.11702 9.95747 3.95745 9.86172 3.8617 9.73406C3.76596 9.6064 3.70213 9.43087 3.70213 9.28725C3.70213 9.12768 3.71809 8.9681 3.8617 8.84044C3.98936 8.71278 4.14894 8.64895 4.34043 8.61704L4.34043 8.633L4.37234 8.633L4.37234 10.0213ZM5.10638 11.9043C4.97872 12.0639 4.81915 12.1277 4.62766 12.1596L4.62766 10.6277C4.88298 10.6915 5.07447 10.7873 5.17021 10.9149C5.26596 11.0107 5.29787 11.1862 5.29787 11.3617C5.29787 11.5851 5.23404 11.7607 5.10638 11.9043ZM10.516 4.10107C8.84043 4.10107 7.30851 5.04256 6.54255 6.55852C6.20745 6.38299 5.85638 6.25533 5.48936 6.15959C6.33511 5.52129 6.8617 4.51597 6.8617 3.4149C6.8617 1.53192 5.29787 0 3.41489 0C1.53191 0 0 1.53192 0 3.4149C0 4.88299 0.941489 6.15959 2.25 6.65427C0.909574 7.43619 0 8.87236 0 10.516C0 12.9734 2.01064 14.9841 4.46809 14.9841C6.19149 14.9841 7.69149 13.9947 8.44149 12.5585C9.07979 12.8936 9.79787 13.0851 10.5319 13.0851C13.0053 13.0851 15 11.0745 15 8.56917C15 6.11171 12.9734 4.10107 10.516 4.10107ZM0.638298 3.4149C0.638298 1.88298 1.88298 0.638299 3.41489 0.638299C4.97872 0.638299 6.2234 1.88298 6.2234 3.39894C6.2234 4.61171 5.45745 5.64895 4.34043 6.04788C3.98936 6.06384 3.6383 6.09576 3.31915 6.20746C1.85106 6.15959 0.638298 4.9149 0.638298 3.4149ZM4.48404 14.3617C2.3617 14.3617 0.638298 12.6543 0.638298 10.5319C0.638298 8.80853 1.78723 7.34044 3.36702 6.86172L3.41489 6.86172L3.43085 6.84576C3.76596 6.75001 4.11702 6.70214 4.48404 6.70214C6.51064 6.70214 8.20213 8.31385 8.31383 10.3245L8.31383 10.516C8.31383 11.0107 8.21809 11.5053 8.0266 11.9681L7.99468 12.0479C7.40426 13.4202 6.04787 14.3617 4.48404 14.3617ZM10.5319 12.4309C9.8617 12.4309 9.27128 12.2873 8.69681 11.9681C8.85638 11.5053 8.93617 11.0266 8.93617 10.516C8.93617 9.03193 8.20213 7.70746 7.08511 6.89363C7.75532 5.58512 9.06383 4.77129 10.5319 4.77129C12.6383 4.77129 14.3617 6.49469 14.3617 8.60108C14.3617 10.7075 12.6383 12.4309 10.5319 12.4309ZM11.5851 8.58512C11.4894 8.48938 11.3617 8.39363 11.2021 8.3298C11.1064 8.31385 10.9468 8.23406 10.6915 8.17023L10.6915 6.70214C10.8511 6.73406 10.9947 6.8298 11.0745 6.92555C11.1702 7.02129 11.234 7.19682 11.266 7.37236L11.8085 7.30853C11.7447 6.98938 11.617 6.7181 11.3936 6.54257C11.234 6.41491 10.9787 6.31916 10.6915 6.28725L10.6915 6.03193L10.4043 6.03193L10.4043 6.28725C10.0532 6.31916 9.78191 6.41491 9.6383 6.57448C9.38298 6.79789 9.25532 7.11704 9.25532 7.4681C9.25532 7.65959 9.28723 7.85108 9.38298 8.01066C9.47872 8.17023 9.60638 8.29789 9.76596 8.39363C9.98936 8.52129 10.1809 8.61704 10.4043 8.64895L10.4043 10.2766C10.2128 10.2447 10.0532 10.149 9.89362 9.95747C9.76596 9.82981 9.70213 9.63832 9.67021 9.35108L9.15957 9.44683C9.15957 9.70215 9.20745 9.92555 9.35106 10.117C9.47872 10.3085 9.62234 10.4681 9.76596 10.5319C9.92553 10.5798 10.1489 10.6596 10.4043 10.6915L10.4043 11.1702L10.6915 11.1702L10.6915 10.6596C11.0426 10.6277 11.3298 10.5 11.5532 10.2766C11.7766 10.0213 11.9043 9.73406 11.9043 9.383C11.9043 9.22342 11.8723 9.06385 11.8085 8.93619C11.7766 8.80853 11.6968 8.68087 11.5851 8.58512ZM10.4521 8.1064C10.1968 8.04257 10.0372 7.94683 9.94149 7.81917C9.84575 7.69151 9.78191 7.51597 9.78191 7.37236C9.78191 7.21278 9.79787 7.05321 9.94149 6.92555C10.0691 6.79789 10.2287 6.73406 10.4202 6.70214L10.4521 6.7181L10.4521 8.1064ZM11.1702 9.98938C11.0426 10.149 10.883 10.2128 10.6915 10.2447L10.6915 8.71278C10.9468 8.77661 11.1383 8.87236 11.234 9.00002C11.3298 9.09576 11.3617 9.2713 11.3617 9.44683C11.3617 9.67023 11.2979 9.84577 11.1702 9.98938ZM3.33511 5.36171L3.33511 5.39363L3.5266 5.39363L3.5266 5.01065C3.81383 5.01065 4.03723 4.9149 4.19681 4.72341C4.35638 4.53192 4.45213 4.30852 4.45213 4.0532C4.45213 3.92554 4.42021 3.79788 4.3883 3.70214C4.37234 3.60639 4.29255 3.51065 4.22872 3.44682C4.16489 3.39894 4.06915 3.31916 3.94149 3.25533C3.87766 3.22341 3.75 3.1915 3.55851 3.12767L3.55851 2.01064C3.68617 2.0266 3.78191 2.05852 3.87766 2.17022C3.94149 2.26596 3.9734 2.36171 4.00532 2.52128L4.3883 2.45745C4.35638 2.20213 4.26064 2.01064 4.10106 1.88298C3.9734 1.78724 3.78191 1.72341 3.55851 1.69149L3.55851 1.5L3.35106 1.5L3.35106 1.65958C3.09574 1.69149 2.90426 1.75532 2.7766 1.88298C2.58511 2.07447 2.48936 2.26596 2.48936 2.5532C2.48936 2.71277 2.52128 2.84043 2.58511 2.96809C2.64894 3.09575 2.74468 3.1915 2.84043 3.25533C3 3.35107 3.15957 3.4149 3.31915 3.44682L3.31915 4.65958C3.15957 4.65958 3.03191 4.56384 2.93617 4.43618C2.8883 4.34043 2.80851 4.1649 2.7766 3.98937L2.39362 4.0532C2.40957 4.24469 2.44149 4.42022 2.55319 4.56384C2.66489 4.70746 2.74468 4.78724 2.87234 4.85107C3 4.9149 3.15957 4.94682 3.35106 4.97873L3.35106 5.36171L3.33511 5.36171ZM3.98936 3.70214C4.05319 3.79788 4.08511 3.92554 4.08511 4.0532C4.08511 4.21277 4.03723 4.37235 3.92553 4.46809C3.82979 4.54788 3.70213 4.61171 3.55851 4.64363L3.55851 3.47873C3.81383 3.55852 3.92553 3.60639 3.98936 3.70214ZM2.95213 2.84043C2.8883 2.7766 2.85638 2.64894 2.85638 2.52128C2.85638 2.39362 2.8883 2.26596 2.98404 2.17022C3.07979 2.07447 3.20745 2.01064 3.33511 2.01064L3.33511 3.06384C3.12766 2.98405 3.01596 2.93618 2.95213 2.84043Z"   fill="#000000" >
</path>
</svg>
