<svg xmlns="http://www.w3.org/2000/svg" xmlns:xlink="http://www.w3.org/1999/xlink" width="24" height="24.7791748046875" viewBox="0 0 24 24.7791748046875" fill="none">
<path d="M18.3896 19.4805L5.61039 19.4805L5.61039 11.2208C5.61041 11.1162 5.61302 11.0118 5.61818 10.9073C5.62337 10.8029 5.63109 10.6987 5.64136 10.5946C5.65164 10.4906 5.66447 10.3869 5.67984 10.2835C5.6952 10.18 5.7131 10.0771 5.73353 9.97454C5.75396 9.872 5.7769 9.77004 5.80232 9.66862C5.82777 9.56722 5.85567 9.46651 5.88604 9.36645C5.9164 9.26642 5.94923 9.16719 5.98449 9.06877C6.01972 8.97034 6.05737 8.87284 6.0974 8.77627C6.13743 8.67967 6.17981 8.58414 6.22454 8.48963C6.26927 8.39513 6.31627 8.30179 6.36558 8.2096C6.41489 8.11741 6.46641 8.02649 6.5202 7.93683C6.57397 7.84717 6.6299 7.75887 6.688 7.67196C6.7461 7.58506 6.8063 7.49961 6.86859 7.41565C6.9309 7.33169 6.99521 7.24931 7.06154 7.16849C7.1279 7.08769 7.19618 7.00858 7.2664 6.93112C7.33663 6.85366 7.40871 6.77798 7.48264 6.70407C7.55659 6.63017 7.6323 6.55812 7.70976 6.48791C7.78724 6.41771 7.8664 6.34946 7.94722 6.28315C8.02804 6.21684 8.11045 6.15253 8.19443 6.09027C8.27842 6.028 8.36386 5.96783 8.45082 5.90976C8.53775 5.85168 8.62605 5.7958 8.71573 5.74205C8.80541 5.68831 8.89636 5.63679 8.98858 5.58752C9.0808 5.53826 9.17416 5.49127 9.26866 5.44658C9.36317 5.4019 9.45872 5.35955 9.55532 5.31955C9.65192 5.27954 9.74942 5.24194 9.84787 5.20673C9.94631 5.17152 10.0455 5.13874 10.1456 5.10838C10.2457 5.07804 10.3464 5.05018 10.4478 5.02478C10.5492 4.99938 10.6512 4.97647 10.7537 4.95609C10.8562 4.93571 10.9592 4.91783 11.0626 4.90249C11.1661 4.88718 11.2698 4.87439 11.3738 4.86414C11.4779 4.85389 11.5821 4.84619 11.6865 4.84108C11.791 4.83594 11.8955 4.83338 12 4.83338C12.1045 4.83338 12.209 4.83594 12.3135 4.84108C12.4179 4.84619 12.5221 4.85389 12.6262 4.86414C12.7302 4.87439 12.8339 4.88718 12.9374 4.90249C13.0408 4.91783 13.1438 4.93571 13.2463 4.95609C13.3488 4.97647 13.4508 4.99938 13.5522 5.02478C13.6536 5.05018 13.7544 5.07804 13.8544 5.10838C13.9545 5.13874 14.0537 5.17152 14.1521 5.20673C14.2506 5.24194 14.3481 5.27954 14.4447 5.31955C14.5413 5.35955 14.6368 5.4019 14.7314 5.44658C14.8259 5.49127 14.9192 5.53826 15.0114 5.58752C15.1037 5.63679 15.1946 5.68831 15.2843 5.74205C15.374 5.7958 15.4622 5.85168 15.5492 5.90976C15.6361 5.96783 15.7216 6.028 15.8056 6.09027C15.8896 6.15253 15.972 6.21684 16.0528 6.28315C16.1336 6.34946 16.2128 6.41771 16.2902 6.48791C16.3677 6.55812 16.4434 6.63017 16.5174 6.70407C16.5913 6.77798 16.6634 6.85366 16.7336 6.93112C16.8038 7.00858 16.8721 7.08769 16.9385 7.16849C17.0048 7.24931 17.0691 7.33169 17.1314 7.41565C17.1937 7.49961 17.2539 7.58506 17.312 7.67196C17.3701 7.75887 17.426 7.84717 17.4798 7.93683C17.5336 8.02649 17.5851 8.11741 17.6344 8.2096C17.6837 8.30179 17.7307 8.39513 17.7755 8.48963C17.8202 8.58414 17.8626 8.67967 17.9026 8.77627C17.9426 8.87284 17.9803 8.97034 18.0155 9.06877C18.0508 9.16719 18.0836 9.26642 18.114 9.36645C18.1443 9.46651 18.1722 9.56722 18.1977 9.66862C18.2231 9.77004 18.246 9.872 18.2665 9.97454C18.2869 10.0771 18.3048 10.18 18.3202 10.2835C18.3355 10.3869 18.3484 10.4906 18.3586 10.5946C18.3689 10.6987 18.3766 10.8029 18.3818 10.9073C18.387 11.0118 18.3896 11.1162 18.3896 11.2208L18.3896 19.4805ZM12 2.64935C11.8597 2.64935 11.7195 2.65278 11.5794 2.65968C11.4393 2.66657 11.2995 2.67687 11.1599 2.69062C11.0203 2.70438 10.8811 2.72155 10.7423 2.74213C10.6035 2.7627 10.4654 2.78669 10.3278 2.81406C10.1902 2.8414 10.0534 2.87213 9.91731 2.90623C9.78124 2.94032 9.6461 2.97772 9.51185 3.01843C9.37761 3.05915 9.24446 3.10313 9.11238 3.15039C8.9803 3.19765 8.84946 3.24813 8.71985 3.3018C8.59025 3.3555 8.46205 3.41233 8.33525 3.47231C8.20843 3.53228 8.08317 3.59532 7.95945 3.66146C7.83575 3.72757 7.71373 3.7967 7.59341 3.86883C7.47309 3.94093 7.3546 4.01596 7.23796 4.0939C7.12132 4.17183 7.00668 4.25257 6.89401 4.33614C6.78134 4.41969 6.67079 4.50597 6.56235 4.59497C6.45392 4.68397 6.34773 4.77555 6.24377 4.86976C6.13985 4.96398 6.03828 5.06067 5.93907 5.15985C5.83989 5.25906 5.7432 5.36062 5.64899 5.46455C5.55477 5.56851 5.46319 5.6747 5.37419 5.78313C5.28519 5.89157 5.19891 6.00212 5.11537 6.11479C5.03179 6.22746 4.95105 6.3421 4.87313 6.45874C4.79518 6.57538 4.72015 6.69387 4.64805 6.81419C4.57593 6.9345 4.50679 7.05653 4.44068 7.18023C4.37455 7.30395 4.3115 7.42921 4.25153 7.55603C4.19155 7.68282 4.13472 7.81103 4.08102 7.94063C4.02735 8.07024 3.97688 8.20108 3.92961 8.33316C3.88235 8.46524 3.83837 8.59838 3.79765 8.73263C3.75694 8.86687 3.71954 9.00202 3.68545 9.13809C3.65136 9.27416 3.62063 9.41099 3.59328 9.54857C3.56591 9.68615 3.54192 9.82432 3.52135 9.96309C3.50077 10.1018 3.4836 10.241 3.46985 10.3806C3.45609 10.5202 3.44579 10.6601 3.4389 10.8002C3.432 10.9403 3.42857 11.0805 3.42857 11.2208L3.42857 19.4805L20.5714 19.4805L20.5714 11.2208C20.5714 11.0805 20.568 10.9403 20.5611 10.8002C20.5542 10.6601 20.5439 10.5202 20.5302 10.3806C20.5164 10.241 20.4992 10.1018 20.4787 9.96309C20.4581 9.82432 20.4341 9.68615 20.4067 9.54857C20.3794 9.41099 20.3486 9.27416 20.3146 9.13809C20.2805 9.00202 20.2431 8.86687 20.2023 8.73263C20.1616 8.59838 20.1176 8.46524 20.0704 8.33316C20.0231 8.20108 19.9726 8.07024 19.919 7.94063C19.8653 7.81103 19.8084 7.68282 19.7485 7.55603C19.6885 7.42921 19.6255 7.30395 19.5593 7.18023C19.4932 7.05653 19.4241 6.9345 19.3519 6.81419C19.2798 6.69387 19.2048 6.57538 19.1269 6.45874C19.0489 6.3421 18.9682 6.22746 18.8846 6.11479C18.8011 6.00212 18.7148 5.89157 18.6258 5.78313C18.5368 5.6747 18.4452 5.56851 18.351 5.46455C18.2568 5.36062 18.1601 5.25906 18.0609 5.15985C17.9617 5.06067 17.8602 4.96398 17.7562 4.86976C17.6523 4.77555 17.5461 4.68397 17.4376 4.59497C17.3292 4.50597 17.2187 4.41969 17.106 4.33614C16.9933 4.25257 16.8787 4.17183 16.762 4.0939C16.6454 4.01596 16.5269 3.94093 16.4066 3.86883C16.2863 3.7967 16.1643 3.72757 16.0406 3.66146C15.9168 3.59532 15.7916 3.53228 15.6647 3.47231C15.538 3.41233 15.4097 3.3555 15.2801 3.3018C15.1505 3.24813 15.0197 3.19765 14.8876 3.15039C14.7555 3.10313 14.6224 3.05915 14.4881 3.01843C14.3539 2.97772 14.2188 2.94032 14.0827 2.90623C13.9466 2.87213 13.8098 2.8414 13.6722 2.81406C13.5346 2.78669 13.3965 2.7627 13.2577 2.74213C13.1189 2.72155 12.9797 2.70438 12.8401 2.69062C12.7005 2.67687 12.5607 2.66657 12.4206 2.65968C12.2805 2.65278 12.1403 2.64935 12 2.64935ZM0 20.5714C0 20.5536 0.000438302 20.5357 0.00131491 20.5179C0.00218994 20.5001 0.00350243 20.4823 0.00525243 20.4645C0.00700239 20.4467 0.00918745 20.429 0.0118076 20.4113C0.0144277 20.3937 0.0174789 20.3761 0.020961 20.3586C0.0244449 20.3411 0.0283554 20.3237 0.0326932 20.3064C0.0370308 20.2891 0.0417913 20.2718 0.0469748 20.2547C0.0521567 20.2377 0.0577549 20.2207 0.0637695 20.2039C0.0697841 20.1871 0.0762078 20.1704 0.0830406 20.154C0.0898734 20.1375 0.0971062 20.1212 0.104739 20.105C0.112373 20.0889 0.120397 20.0729 0.128813 20.0572C0.13723 20.0414 0.146028 20.0259 0.155206 20.0106C0.164385 19.9953 0.173934 19.9802 0.183852 19.9653C0.193771 19.9505 0.204048 19.9359 0.214683 19.9216C0.225317 19.9072 0.236298 19.8932 0.247624 19.8794C0.25895 19.8656 0.270609 19.852 0.282599 19.8388C0.294589 19.8256 0.306896 19.8127 0.319519 19.8C0.332145 19.7874 0.345071 19.7751 0.3583 19.7631C0.371528 19.7511 0.385042 19.7395 0.398844 19.7281C0.412644 19.7168 0.426716 19.7058 0.441056 19.6952C0.455396 19.6846 0.469987 19.6743 0.484834 19.6644C0.499678 19.6545 0.514756 19.6449 0.53007 19.6357C0.545384 19.6266 0.560912 19.6177 0.576657 19.6093C0.592403 19.6009 0.608345 19.5929 0.624485 19.5853C0.640624 19.5776 0.656942 19.5704 0.673437 19.5636C0.689929 19.5567 0.706583 19.5503 0.723392 19.5443C0.740201 19.5383 0.757149 19.5327 0.774234 19.5275C0.791321 19.5223 0.808522 19.5176 0.82584 19.5132C0.843158 19.5089 0.860571 19.505 0.878082 19.5015C0.895593 19.498 0.913179 19.4949 0.93084 19.4923C0.948502 19.4897 0.966214 19.4875 0.983981 19.4858C1.00175 19.484 1.01955 19.4827 1.03738 19.4818C1.05521 19.481 1.07306 19.4805 1.09091 19.4805L22.9091 19.4805C22.9269 19.4805 22.9448 19.481 22.9626 19.4818C22.9805 19.4827 22.9983 19.484 23.016 19.4858C23.0338 19.4875 23.0515 19.4897 23.0691 19.4923C23.0868 19.4949 23.1044 19.498 23.1219 19.5015C23.1394 19.505 23.1568 19.5089 23.1741 19.5132C23.1915 19.5176 23.2087 19.5223 23.2258 19.5275C23.2428 19.5327 23.2598 19.5383 23.2766 19.5443C23.2934 19.5503 23.3101 19.5567 23.3266 19.5636C23.343 19.5704 23.3594 19.5776 23.3755 19.5853C23.3916 19.5929 23.4076 19.6009 23.4233 19.6093C23.4391 19.6177 23.4546 19.6266 23.4699 19.6357C23.4853 19.6449 23.5003 19.6545 23.5152 19.6644C23.53 19.6743 23.5446 19.6846 23.5589 19.6952C23.5733 19.7058 23.5874 19.7168 23.6012 19.7281C23.615 19.7395 23.6285 19.7511 23.6417 19.7631C23.6549 19.7751 23.6679 19.7874 23.6805 19.8C23.6931 19.8127 23.7054 19.8256 23.7174 19.8388C23.7294 19.852 23.7411 19.8656 23.7524 19.8794C23.7637 19.8932 23.7747 19.9072 23.7853 19.9216C23.796 19.9359 23.8062 19.9505 23.8162 19.9653C23.8261 19.9802 23.8356 19.9953 23.8448 20.0106C23.854 20.0259 23.8628 20.0414 23.8712 20.0572C23.8796 20.0729 23.8877 20.0888 23.8953 20.105C23.9029 20.1211 23.9101 20.1375 23.917 20.154C23.9238 20.1704 23.9302 20.1871 23.9362 20.2039C23.9422 20.2207 23.9478 20.2377 23.953 20.2547C23.9582 20.2718 23.963 20.289 23.9674 20.3063C23.9716 20.3237 23.9755 20.3411 23.9791 20.3586C23.9825 20.3761 23.9856 20.3937 23.9883 20.4113C23.9909 20.429 23.993 20.4467 23.9946 20.4645C23.9964 20.4823 23.9978 20.5001 23.9988 20.5179C23.9996 20.5357 24 20.5536 24 20.5714C24 20.5893 23.9996 20.6071 23.9988 20.625C23.9978 20.6428 23.9964 20.6606 23.9946 20.6784C23.993 20.6961 23.9909 20.7138 23.9883 20.7315C23.9856 20.7491 23.9825 20.7667 23.9791 20.7843C23.9755 20.8018 23.9716 20.8192 23.9674 20.8365C23.963 20.8538 23.9582 20.871 23.953 20.8881C23.9478 20.9052 23.9422 20.9221 23.9362 20.939C23.9302 20.9558 23.9238 20.9724 23.917 20.9889C23.9101 21.0054 23.9029 21.0217 23.8953 21.0378C23.8877 21.054 23.8796 21.0699 23.8712 21.0857C23.8628 21.1014 23.854 21.117 23.8448 21.1323C23.8356 21.1476 23.8261 21.1627 23.8162 21.1775C23.8062 21.1923 23.796 21.2069 23.7853 21.2213C23.7747 21.2356 23.7637 21.2497 23.7524 21.2635C23.7411 21.2773 23.7294 21.2908 23.7174 21.304C23.7054 21.3173 23.6931 21.3302 23.6805 21.3428C23.6679 21.3554 23.6549 21.3677 23.6417 21.3797C23.6285 21.3917 23.615 21.4034 23.6012 21.4147C23.5874 21.426 23.5733 21.437 23.5589 21.4477C23.5446 21.4583 23.53 21.4686 23.5152 21.4785C23.5003 21.4884 23.4853 21.4979 23.4699 21.5071C23.4546 21.5163 23.4391 21.5251 23.4234 21.5335C23.4076 21.5419 23.3916 21.55 23.3755 21.5576C23.3594 21.5652 23.343 21.5725 23.3266 21.5793C23.3101 21.5861 23.2934 21.5925 23.2766 21.5986C23.2598 21.6046 23.2428 21.6102 23.2258 21.6154C23.2087 21.6206 23.1915 21.6253 23.1741 21.6296C23.1568 21.634 23.1394 21.6379 23.1219 21.6414C23.1044 21.6449 23.0868 21.6479 23.0691 21.6505C23.0515 21.6531 23.0338 21.6553 23.016 21.6571C22.9983 21.6588 22.9805 21.6601 22.9626 21.661C22.9448 21.6619 22.9269 21.6623 22.9091 21.6623L1.09091 21.6623C1.07306 21.6623 1.05521 21.6619 1.03738 21.661C1.01955 21.6601 1.00175 21.6588 0.983981 21.6571C0.966214 21.6553 0.948502 21.6531 0.93084 21.6505C0.913179 21.6479 0.895593 21.6449 0.878082 21.6414C0.860571 21.6379 0.843158 21.634 0.82584 21.6296C0.808522 21.6253 0.791321 21.6206 0.774234 21.6154C0.757149 21.6102 0.740201 21.6046 0.723392 21.5986C0.706583 21.5925 0.689929 21.5861 0.673437 21.5793C0.656942 21.5725 0.640624 21.5652 0.624485 21.5576C0.608345 21.55 0.592403 21.5419 0.576657 21.5335C0.560912 21.5251 0.545384 21.5163 0.53007 21.5071C0.514756 21.4979 0.499678 21.4884 0.484834 21.4785C0.469987 21.4686 0.455396 21.4583 0.441056 21.4477C0.426716 21.437 0.412644 21.426 0.398844 21.4147C0.385042 21.4034 0.371528 21.3917 0.3583 21.3797C0.345071 21.3677 0.332145 21.3554 0.319519 21.3428C0.306896 21.3302 0.294589 21.3173 0.282599 21.304C0.270609 21.2908 0.25895 21.2773 0.247624 21.2635C0.236298 21.2497 0.225317 21.2356 0.214683 21.2213C0.204048 21.2069 0.193771 21.1923 0.183852 21.1775C0.173934 21.1627 0.164385 21.1476 0.155206 21.1323C0.146028 21.117 0.13723 21.1014 0.128813 21.0857C0.120397 21.0699 0.112373 21.054 0.104739 21.0378C0.0971062 21.0217 0.0898734 21.0054 0.0830406 20.9889C0.0762078 20.9724 0.0697841 20.9558 0.0637695 20.939C0.0577549 20.9221 0.0521567 20.9052 0.0469748 20.8881C0.0417913 20.871 0.0370308 20.8538 0.0326932 20.8365C0.0283554 20.8192 0.0244449 20.8018 0.020961 20.7843C0.0174789 20.7667 0.0144277 20.7491 0.0118076 20.7315C0.00918745 20.7138 0.00700239 20.6961 0.00525243 20.6784C0.00350243 20.6606 0.00218994 20.6428 0.00131491 20.625C0.000438302 20.6071 0 20.5893 0 20.5714ZM8.57143 23.6883C8.57143 23.7062 8.57187 23.724 8.57274 23.7418C8.57362 23.7597 8.57493 23.7775 8.57669 23.7952C8.57844 23.813 8.58063 23.8307 8.58324 23.8484C8.58584 23.866 8.58891 23.8836 8.59239 23.9011C8.59588 23.9186 8.59977 23.9361 8.60413 23.9534C8.60847 23.9707 8.61321 23.9879 8.6184 24.005C8.62359 24.0221 8.62919 24.039 8.6352 24.0558C8.64122 24.0726 8.64762 24.0893 8.65446 24.1058C8.66131 24.1223 8.66854 24.1386 8.67616 24.1547C8.68378 24.1709 8.69182 24.1868 8.70024 24.2026C8.70864 24.2183 8.71746 24.2338 8.72664 24.2492C8.73582 24.2645 8.74537 24.2795 8.75528 24.2944C8.76519 24.3092 8.77546 24.3238 8.7861 24.3382C8.79675 24.3526 8.80773 24.3665 8.81905 24.3804C8.83037 24.3942 8.84204 24.4076 8.85402 24.421C8.86602 24.4342 8.87832 24.4471 8.89096 24.4597C8.90357 24.4724 8.9165 24.4846 8.92972 24.4965C8.94295 24.5084 8.95646 24.5201 8.97027 24.5316C8.98407 24.543 8.99815 24.554 9.01249 24.5644C9.02683 24.5752 9.04142 24.5854 9.05625 24.5954C9.0711 24.6054 9.08618 24.6149 9.10149 24.6241C9.11681 24.6331 9.13232 24.6419 9.14808 24.6504C9.16383 24.6589 9.17978 24.667 9.19593 24.6745C9.21207 24.6821 9.22838 24.6894 9.24487 24.6962C9.26136 24.703 9.27801 24.7093 9.29481 24.7154C9.31164 24.7215 9.32859 24.7271 9.34566 24.7322C9.36275 24.7373 9.37997 24.7422 9.39728 24.7466C9.41459 24.7507 9.432 24.7546 9.44951 24.7583C9.46702 24.7617 9.48463 24.7649 9.50228 24.7675C9.51993 24.7702 9.53764 24.7722 9.55541 24.7739C9.57317 24.7756 9.59097 24.777 9.60882 24.778C9.62664 24.7787 9.64449 24.7792 9.66234 24.7792L14.3377 24.7792C14.3555 24.7792 14.3734 24.7787 14.3912 24.778C14.409 24.777 14.4268 24.7756 14.4446 24.7739C14.4624 24.7722 14.4801 24.7702 14.4977 24.7675C14.5154 24.7649 14.533 24.7617 14.5505 24.7583C14.568 24.7546 14.5854 24.7507 14.6027 24.7466C14.62 24.7422 14.6372 24.7373 14.6543 24.7322C14.6714 24.7271 14.6884 24.7215 14.7052 24.7154C14.722 24.7093 14.7386 24.703 14.7551 24.6962C14.7716 24.6894 14.7879 24.6821 14.8041 24.6745C14.8202 24.667 14.8362 24.6589 14.8519 24.6504C14.8677 24.6419 14.8832 24.6331 14.8985 24.6241C14.9138 24.6149 14.9289 24.6054 14.9438 24.5954C14.9586 24.5854 14.9732 24.5752 14.9875 24.5644C15.0019 24.554 15.0159 24.543 15.0297 24.5316C15.0435 24.5201 15.0571 24.5084 15.0703 24.4965C15.0835 24.4846 15.0964 24.4724 15.109 24.4597C15.1217 24.4471 15.134 24.4342 15.146 24.421C15.158 24.4076 15.1696 24.3942 15.1809 24.3804C15.1923 24.3665 15.2033 24.3526 15.2139 24.3382C15.2245 24.3238 15.2348 24.3092 15.2447 24.2944C15.2546 24.2795 15.2642 24.2645 15.2734 24.2492C15.2825 24.2338 15.2914 24.2183 15.2998 24.2026C15.3082 24.1868 15.3162 24.1709 15.3238 24.1547C15.3315 24.1386 15.3387 24.1223 15.3455 24.1058C15.3524 24.0893 15.3588 24.0726 15.3648 24.0558C15.3708 24.039 15.3764 24.0221 15.3816 24.005C15.3868 23.9879 15.3915 23.9707 15.3959 23.9534C15.4002 23.9361 15.4041 23.9186 15.4076 23.9011C15.4111 23.8836 15.4142 23.866 15.4168 23.8484C15.4194 23.8307 15.4216 23.813 15.4233 23.7952C15.4251 23.7775 15.4264 23.7597 15.4273 23.7418C15.4281 23.724 15.4286 23.7062 15.4286 23.6883C15.4286 23.6705 15.4281 23.6526 15.4273 23.6348C15.4264 23.6169 15.4251 23.5991 15.4233 23.5814C15.4216 23.5636 15.4194 23.5459 15.4168 23.5282C15.4142 23.5106 15.4111 23.493 15.4076 23.4755C15.4041 23.458 15.4002 23.4406 15.3959 23.4233C15.3915 23.4059 15.3868 23.3887 15.3816 23.3716C15.3764 23.3546 15.3708 23.3376 15.3648 23.3208C15.3588 23.304 15.3524 23.2873 15.3455 23.2708C15.3387 23.2544 15.3315 23.238 15.3238 23.2219C15.3162 23.2057 15.3082 23.1898 15.2998 23.174C15.2914 23.1583 15.2825 23.1428 15.2734 23.1275C15.2642 23.1122 15.2546 23.0971 15.2447 23.0822C15.2348 23.0674 15.2245 23.0528 15.2139 23.0385C15.2033 23.0241 15.1923 23.01 15.1809 22.9962C15.1696 22.9824 15.158 22.9689 15.146 22.9557C15.134 22.9425 15.1217 22.9295 15.109 22.9169C15.0964 22.9043 15.0835 22.892 15.0703 22.88C15.0571 22.868 15.0435 22.8563 15.0297 22.845C15.0159 22.8337 15.0019 22.8227 14.9875 22.8121C14.9732 22.8014 14.9586 22.7912 14.9437 22.7812C14.9289 22.7713 14.9138 22.7618 14.8985 22.7526C14.8832 22.7434 14.8677 22.7346 14.8519 22.7262C14.8362 22.7178 14.8202 22.7098 14.8041 22.7021C14.7879 22.6945 14.7716 22.6873 14.7551 22.6804C14.7386 22.6736 14.722 22.6672 14.7052 22.6612C14.6884 22.6552 14.6714 22.6496 14.6543 22.6444C14.6372 22.6392 14.62 22.6344 14.6027 22.6301C14.5854 22.6257 14.568 22.6219 14.5505 22.6184C14.533 22.6149 14.5154 22.6118 14.4977 22.6092C14.4801 22.6066 14.4624 22.6044 14.4446 22.6027C14.4268 22.6009 14.409 22.5996 14.3912 22.5987C14.3734 22.5978 14.3555 22.5974 14.3377 22.5974L9.66234 22.5974C9.64449 22.5974 9.62664 22.5978 9.60882 22.5987C9.59097 22.5996 9.57317 22.6009 9.55541 22.6027C9.53764 22.6044 9.51993 22.6066 9.50228 22.6092C9.48463 22.6118 9.46702 22.6149 9.44951 22.6184C9.432 22.6219 9.41459 22.6257 9.39728 22.6301C9.37997 22.6344 9.36275 22.6392 9.34566 22.6444C9.32859 22.6496 9.31164 22.6552 9.29481 22.6612C9.27801 22.6672 9.26136 22.6736 9.24487 22.6804C9.22838 22.6873 9.21207 22.6945 9.19593 22.7021C9.17978 22.7098 9.16383 22.7178 9.14808 22.7262C9.13232 22.7346 9.11681 22.7434 9.10149 22.7526C9.08618 22.7618 9.0711 22.7713 9.05625 22.7812C9.04142 22.7912 9.02683 22.8014 9.01249 22.8121C8.99815 22.8227 8.98407 22.8337 8.97027 22.845C8.95646 22.8563 8.94295 22.868 8.92972 22.88C8.9165 22.892 8.90357 22.9043 8.89096 22.9169C8.87832 22.9295 8.86602 22.9425 8.85402 22.9557C8.84204 22.9689 8.83037 22.9824 8.81905 22.9962C8.80773 23.01 8.79675 23.0241 8.7861 23.0385C8.77546 23.0528 8.76519 23.0674 8.75528 23.0822C8.74537 23.0971 8.73582 23.1122 8.72664 23.1275C8.71746 23.1428 8.70864 23.1583 8.70024 23.174C8.69182 23.1898 8.68378 23.2058 8.67616 23.2219C8.66854 23.238 8.66131 23.2544 8.65446 23.2708C8.64762 23.2873 8.64122 23.304 8.6352 23.3208C8.62919 23.3376 8.62359 23.3546 8.6184 23.3716C8.61321 23.3887 8.60847 23.4059 8.60413 23.4233C8.59977 23.4406 8.59588 23.458 8.59239 23.4755C8.58891 23.493 8.58584 23.5106 8.58324 23.5282C8.58063 23.5459 8.57844 23.5636 8.57669 23.5814C8.57493 23.5991 8.57362 23.6169 8.57274 23.6348C8.57187 23.6526 8.57143 23.6705 8.57143 23.6883ZM10.9091 2.71948L13.0909 2.71948L13.0909 1.09091C13.0909 1.07306 13.0905 1.05521 13.0896 1.03738C13.0887 1.01955 13.0874 1.00175 13.0856 0.983981C13.0839 0.966214 13.0817 0.948502 13.0791 0.93084C13.0765 0.913179 13.0734 0.895593 13.0699 0.878082C13.0665 0.860571 13.0626 0.843158 13.0582 0.82584C13.0539 0.808522 13.0491 0.791321 13.0439 0.774234C13.0387 0.757149 13.0331 0.740201 13.0271 0.723392C13.0211 0.706583 13.0147 0.689929 13.0079 0.673437C13.001 0.656942 12.9938 0.640624 12.9862 0.624485C12.9785 0.608345 12.9705 0.592403 12.9621 0.576657C12.9537 0.560912 12.9449 0.545384 12.9357 0.53007C12.9265 0.514756 12.917 0.499678 12.9071 0.484834C12.8972 0.469987 12.8869 0.455396 12.8762 0.441056C12.8656 0.426716 12.8546 0.412644 12.8433 0.398844C12.832 0.385042 12.8203 0.371528 12.8083 0.3583C12.7963 0.345071 12.784 0.332145 12.7714 0.319519C12.7588 0.306896 12.7458 0.294589 12.7326 0.282599C12.7194 0.270609 12.7059 0.25895 12.6921 0.247624C12.6783 0.236298 12.6642 0.225317 12.6498 0.214683C12.6355 0.204048 12.6209 0.193771 12.6061 0.183852C12.5912 0.173934 12.5762 0.164384 12.5608 0.155205C12.5455 0.146027 12.53 0.137229 12.5143 0.128813C12.4985 0.120397 12.4826 0.112372 12.4664 0.104739C12.4503 0.0971055 12.434 0.0898726 12.4175 0.0830406C12.401 0.0762083 12.3843 0.0697848 12.3675 0.06377C12.3507 0.0577554 12.3337 0.0521567 12.3167 0.0469741C12.2996 0.0417916 12.2824 0.0370312 12.2651 0.0326932C12.2477 0.0283551 12.2303 0.0244444 12.2128 0.0209615C12.1953 0.0174784 12.1777 0.014427 12.1601 0.0118074C12.1424 0.00918774 12.1247 0.00700293 12.1069 0.00525292C12.0892 0.00350308 12.0714 0.0021901 12.0535 0.00131396C12.0357 0.000437983 12.0178 0 12 0C11.9822 0 11.9643 0.000437983 11.9465 0.00131396C11.9286 0.0021901 11.9108 0.00350308 11.8931 0.00525292C11.8753 0.00700293 11.8576 0.00918774 11.8399 0.0118074C11.8223 0.014427 11.8047 0.0174784 11.7872 0.0209615C11.7697 0.0244444 11.7522 0.0283551 11.7349 0.0326932C11.7176 0.0370312 11.7004 0.0417916 11.6833 0.0469741C11.6663 0.0521567 11.6493 0.0577554 11.6325 0.06377C11.6157 0.0697848 11.599 0.0762083 11.5825 0.0830406C11.566 0.0898726 11.5497 0.0971055 11.5336 0.104739C11.5174 0.112372 11.5015 0.120397 11.4857 0.128813C11.47 0.137229 11.4545 0.146027 11.4392 0.155205C11.4238 0.164384 11.4088 0.173934 11.3939 0.183852C11.3791 0.193771 11.3645 0.204048 11.3502 0.214683C11.3358 0.225317 11.3217 0.236298 11.3079 0.247624C11.2941 0.25895 11.2806 0.270609 11.2674 0.282599C11.2542 0.294589 11.2412 0.306896 11.2286 0.319519C11.216 0.332145 11.2037 0.345071 11.1917 0.3583C11.1797 0.371528 11.168 0.385042 11.1567 0.398844C11.1454 0.412644 11.1344 0.426716 11.1238 0.441056C11.1131 0.455396 11.1028 0.469987 11.0929 0.484834C11.083 0.499678 11.0735 0.514756 11.0643 0.53007C11.0551 0.545384 11.0463 0.560912 11.0379 0.576657C11.0295 0.592403 11.0214 0.608345 11.0138 0.624485C11.0062 0.640624 10.999 0.656942 10.9921 0.673437C10.9853 0.689929 10.9789 0.706583 10.9729 0.723392C10.9669 0.740201 10.9613 0.757149 10.9561 0.774234C10.9509 0.791321 10.9461 0.808522 10.9418 0.82584C10.9374 0.843158 10.9335 0.860574 10.9301 0.878084C10.9266 0.895595 10.9235 0.913179 10.9209 0.93084C10.9183 0.948502 10.9161 0.966214 10.9144 0.983981C10.9126 1.00175 10.9113 1.01955 10.9104 1.03738C10.9095 1.05521 10.9091 1.07306 10.9091 1.09091L10.9091 2.71792L10.9091 2.71948Z"   fill="#FFFFFF" >
</path>
</svg>
