<svg xmlns="http://www.w3.org/2000/svg" xmlns:xlink="http://www.w3.org/1999/xlink" width="15" height="15" viewBox="0 0 15 15" fill="none">
<path d="M14.9787 13.2962L14.1043 5.08696C13.9794 4.37772 13.3465 3.86413 12.6136 3.86413L10.3985 3.86413L10.3985 2.84511C10.3985 1.27989 9.09933 0 7.49208 0C5.90149 0 4.59404 1.27989 4.59404 2.84511L4.59404 3.86413L2.38719 3.86413C1.64602 3.86413 1.02145 4.37772 0.888204 5.12772L0.0221224 13.2554C-0.052827 13.6875 0.063761 14.1277 0.355231 14.4701C0.646701 14.8043 1.06309 15 1.51278 15L13.4797 15C13.9294 15 14.3541 14.8043 14.6373 14.4701C14.9287 14.1277 15.0536 13.6875 14.9787 13.2962ZM5.70995 2.84511C5.70995 1.875 6.51774 1.09239 7.50041 1.09239C8.4914 1.09239 9.29087 1.88315 9.29087 2.84511L9.29087 3.86413L5.70995 3.86413L5.70995 2.84511ZM13.7962 13.769C13.7545 13.8261 13.6463 13.9076 13.488 13.9076L1.51278 13.9076C1.34623 13.9076 1.2463 13.8179 1.20466 13.769C1.16302 13.712 1.08807 13.606 1.12138 13.4103L1.98746 5.27446C2.02077 5.08696 2.18733 4.94837 2.38719 4.94837L12.6136 4.94837C12.8135 4.94837 12.98 5.08696 13.005 5.24185L13.8794 13.4511C13.9127 13.606 13.8378 13.712 13.7962 13.769ZM5.9348 6.91304C5.9348 7.33696 5.58503 7.67935 5.15199 7.67935C4.71895 7.67935 4.36919 7.33696 4.36919 6.91304C4.36919 6.48913 4.71895 6.14674 5.15199 6.14674C5.58503 6.14674 5.9348 6.48913 5.9348 6.91304ZM10.6316 6.91304C10.6316 7.33696 10.2819 7.67935 9.84882 7.67935C9.41578 7.67935 9.06602 7.33696 9.06602 6.91304C9.06602 6.48913 9.41578 6.14674 9.84882 6.14674C10.2819 6.14674 10.6316 6.48913 10.6316 6.91304Z"   fill="#000000" >
</path>
</svg>
