<svg xmlns="http://www.w3.org/2000/svg" xmlns:xlink="http://www.w3.org/1999/xlink" width="15" height="12.359619140625" viewBox="0 0 15 12.359619140625" fill="none">
<path d="M4.47926 8.03375C4.57456 8.03375 4.66985 8.03375 4.66985 7.9565L12.4847 8.03375C12.8659 8.03375 13.2472 7.80202 13.3425 7.49302L14.9626 2.08569C15.0579 1.85395 14.9626 1.6222 14.772 1.4677C14.5814 1.31322 14.2955 1.15872 14.0096 1.15872L2.9544 1.15872L2.6685 0L0.476512 0C0.190613 0 0 0.1545 0 0.386234C0 0.617984 0.190613 0.772484 0.476512 0.772484L1.90607 0.772484L3.81213 7.41578C3.24031 7.64752 2.85909 8.111 2.85909 8.65173C2.85909 9.11522 3.24031 9.5787 3.71683 9.81045C3.24031 10.0422 2.85909 10.5057 2.85909 10.9692C2.85909 11.7416 3.62152 12.3596 4.57456 12.3596C5.52759 12.3596 6.29002 11.7416 6.29002 10.9692C6.29002 10.6602 6.0994 10.3512 5.90879 10.1194L11.8176 10.1194C11.627 10.3512 11.4364 10.6602 11.4364 10.9692C11.4364 11.7416 12.1988 12.3596 13.1519 12.3596C14.1049 12.3596 14.8673 11.7416 14.8673 10.9692C14.8673 10.3512 14.2955 9.81045 13.6284 9.65595C13.6284 9.50145 13.4377 9.34697 13.1519 9.34697L4.86046 9.34697C4.76516 9.26972 4.66985 9.26972 4.47926 9.26972C4.09803 9.26972 3.71683 9.03797 3.71683 8.65173C3.81213 8.34275 4.09803 8.03375 4.47926 8.03375ZM12.58 7.33853L4.86046 7.41578L4.76516 7.33853L3.71683 3.86239L13.5331 3.86239L12.58 7.33853ZM14.1049 1.93119L13.7237 3.08991L3.52621 3.08991L3.14501 1.93119L14.1049 1.93119ZM4.47926 11.5871C4.09803 11.5871 3.71683 11.3554 3.71683 10.9692C3.71683 10.5829 4.00273 10.3512 4.47926 10.3512C4.95577 10.3512 5.24169 10.5829 5.24169 10.9692C5.24169 11.3554 4.86046 11.5871 4.47926 11.5871ZM13.7237 10.9692C13.7237 11.2782 13.4377 11.5871 12.9612 11.5871C12.58 11.5871 12.1988 11.3554 12.1988 10.9692C12.1988 10.5829 12.4847 10.3512 12.9612 10.3512C13.3425 10.4284 13.7237 10.6602 13.7237 10.9692Z"   fill="#000000" >
</path>
</svg>
